# xmcd
#
# Track frame offsets:
#	150
#	25275
#	49650
#	71175
#	94950
#	120000
#	144525
#	166725
#	189375
#	224025
#	243300
#	264900
#
# Disc length: 3824 seconds
#
# Revision: 0
# Processed by: cddbd v1.5.2PL0 Copyright (c) Steve Scherf et al.
# Submitted via: dBpowerAMP V4.0
#
DISCID=a70eee0c
DTITLE=Warren Haynes - Live @ Red Rocks 8-31-2002
DYEAR=2002
DGENRE=Blues
TTITLE0=The Real One
TTITLE1=One
TTITLE2=Patchwork Quilt
TTITLE3=Wasted Time
TTITLE4=Before You Came
TTITLE5=Glory Road
TTITLE6=New Year's Eve
TTITLE7=In My Life
TTITLE8=Stella Blue
TTITLE9=Beautifully Broken
TTITLE10=Tastes Like Wine
TTITLE11=Soulshine
EXTD=
EXTT0=
EXTT1=
EXTT2=
EXTT3=
EXTT4=
EXTT5=
EXTT6=
EXTT7=
EXTT8=
EXTT9=
EXTT10=
EXTT11=
PLAYORDER=
